<svg width="167" height="63" viewBox="0 0 167 63" fill="none" xmlns="http://www.w3.org/2000/svg">
<path d="M135.949 62.848C133.261 62.848 130.765 62.112 128.461 60.64C126.221 59.104 124.397 56.96 122.989 54.208C121.645 51.456 120.973 48.192 120.973 44.416C120.973 40.64 121.645 37.44 122.989 34.816C124.397 32.128 126.189 29.952 128.365 28.288C130.605 26.624 133.005 25.376 135.565 24.544C138.125 23.712 140.557 23.296 142.861 23.296C145.165 23.296 147.277 23.648 149.197 24.352C151.181 25.056 153.005 25.984 154.669 27.136L153.133 34.048C151.661 31.424 149.965 29.344 148.045 27.808C146.125 26.208 143.661 25.408 140.653 25.408C136.941 25.408 133.933 26.72 131.629 29.344C129.389 31.968 128.269 36 128.269 41.44C128.269 45.088 128.781 48.224 129.805 50.848C130.893 53.472 132.333 55.488 134.125 56.896C135.917 58.304 137.933 59.008 140.173 59.008C142.989 59.008 145.453 58.24 147.565 56.704C149.677 55.168 151.693 53.312 153.613 51.136L154.477 51.904C153.133 53.44 151.565 55.072 149.773 56.8C147.981 58.464 145.933 59.904 143.629 61.12C141.389 62.272 138.829 62.848 135.949 62.848ZM158.029 0.959999V50.848C158.029 53.088 158.285 54.72 158.797 55.744C159.309 56.704 160.141 57.184 161.293 57.184C161.869 57.184 162.541 57.12 163.309 56.992C164.141 56.8 165.037 56.448 165.997 55.936C166.253 55.808 166.445 55.936 166.573 56.32C166.765 56.64 166.765 56.864 166.573 56.992L155.149 62.464C154.893 62.592 154.669 62.656 154.477 62.656C153.709 62.656 153.005 61.888 152.365 60.352C151.789 58.816 151.501 56.64 151.501 53.824V12.576C151.501 10.272 151.277 8.608 150.829 7.584C150.445 6.56 149.677 6.048 148.525 6.048C147.949 6.048 147.341 6.176 146.701 6.432C146.061 6.624 145.261 6.944 144.301 7.392C144.045 7.456 143.821 7.296 143.629 6.912C143.501 6.528 143.533 6.304 143.725 6.24L156.493 0.0959988C156.621 0.0319996 156.781 0 156.973 0C157.165 0 157.389 0.0959988 157.645 0.287996C157.901 0.479998 158.029 0.703999 158.029 0.959999Z" fill="#4a6552"/>
<path d="M96.6903 61.6C96.4983 61.6 96.4023 61.408 96.4023 61.024C96.4023 60.64 96.4983 60.448 96.6903 60.448C98.9943 60.448 100.498 60.032 101.202 59.2C101.97 58.304 102.354 56.512 102.354 53.824V38.752C102.354 35.104 101.682 32.416 100.338 30.688C98.9943 28.896 96.8503 28 93.9063 28C91.6663 28 89.3943 28.672 87.0903 30.016C84.8503 31.296 82.9303 33.088 81.3303 35.392L80.9463 34.24C83.5703 30.656 86.2583 27.936 89.0103 26.08C91.8263 24.224 94.7703 23.296 97.8423 23.296C101.362 23.296 104.082 24.32 106.002 26.368C107.986 28.416 108.978 31.328 108.978 35.104V53.824C108.978 56.512 109.33 58.304 110.034 59.2C110.802 60.032 112.37 60.448 114.738 60.448C114.93 60.448 115.026 60.64 115.026 61.024C115.026 61.408 114.93 61.6 114.738 61.6C113.522 61.6 112.146 61.568 110.61 61.504C109.074 61.44 107.442 61.408 105.714 61.408C103.986 61.408 102.322 61.44 100.722 61.504C99.1863 61.568 97.8423 61.6 96.6903 61.6ZM70.8663 61.6C70.6743 61.6 70.5783 61.408 70.5783 61.024C70.5783 60.64 70.6743 60.448 70.8663 60.448C73.1703 60.448 74.6743 60.032 75.3783 59.2C76.1463 58.304 76.5303 56.512 76.5303 53.824V35.104C76.5303 33.056 76.2743 31.552 75.7623 30.592C75.3143 29.632 74.5143 29.152 73.3623 29.152C72.7223 29.152 71.9863 29.28 71.1543 29.536C70.3223 29.728 69.3623 30.048 68.2743 30.496C68.0183 30.624 67.8263 30.528 67.6983 30.208C67.5703 29.824 67.6023 29.568 67.7943 29.44L79.6023 23.776C79.8583 23.712 80.0503 23.68 80.1783 23.68C80.7543 23.68 81.3943 24.384 82.0983 25.792C82.8023 27.2 83.1543 29.216 83.1543 31.84V53.824C83.1543 56.512 83.5063 58.304 84.2103 59.2C84.9783 60.032 86.5463 60.448 88.9143 60.448C89.1063 60.448 89.2023 60.64 89.2023 61.024C89.2023 61.408 89.1063 61.6 88.9143 61.6C87.6983 61.6 86.3223 61.568 84.7863 61.504C83.2503 61.44 81.6183 61.408 79.8903 61.408C78.1623 61.408 76.4983 61.44 74.8983 61.504C73.3623 61.568 72.0183 61.6 70.8663 61.6Z" fill="#4a6552"/>
<path d="M48.7735 62.752C44.8055 62.752 41.4775 61.888 38.7895 60.16C36.1015 58.368 34.0535 56.064 32.6455 53.248C31.3015 50.432 30.6295 47.424 30.6295 44.224C30.6295 40.384 31.5255 36.928 33.3175 33.856C35.1735 30.72 37.6695 28.256 40.8055 26.464C43.9415 24.608 47.4295 23.68 51.2695 23.68C54.9815 23.68 57.8295 24.608 59.8135 26.464C61.8615 28.32 62.8855 31.04 62.8855 34.624C62.8855 35.456 62.7895 36.128 62.5975 36.64C62.4695 37.088 62.1815 37.312 61.7335 37.312H55.1095C55.3655 33.472 54.8535 30.56 53.5735 28.576C52.3575 26.592 50.5015 25.6 48.0055 25.6C44.8695 25.6 42.4055 26.944 40.6135 29.632C38.8855 32.32 38.0215 35.936 38.0215 40.48C38.0215 44.128 38.5975 47.36 39.7495 50.176C40.9015 52.928 42.5975 55.072 44.8375 56.608C47.0775 58.144 49.7975 58.912 52.9975 58.912C55.1095 58.912 56.8375 58.624 58.1815 58.048C59.5895 57.472 61.0295 56.768 62.5015 55.936C62.6295 55.808 62.7895 55.904 62.9815 56.224C63.2375 56.48 63.3015 56.704 63.1735 56.896C60.8695 59.008 58.5335 60.512 56.1655 61.408C53.7975 62.304 51.3335 62.752 48.7735 62.752ZM35.8135 37.408L35.7175 35.968L57.2215 35.584V37.312L35.8135 37.408Z" fill="#4a6552"/>
<path d="M14.784 62.752C13.248 62.752 11.744 62.496 10.272 61.984C8.8 61.536 7.584 60.704 6.624 59.488C5.728 58.272 5.28 56.64 5.28 54.592V32.416C5.28 30.944 5.152 29.824 4.896 29.056C4.64 28.288 4.16 27.776 3.456 27.52C2.752 27.264 1.696 27.136 0.288 27.136C0.0960002 27.136 0 26.912 0 26.464C0 25.952 0.0960002 25.696 0.288 25.696C3.104 25.632 5.376 24.96 7.104 23.68C8.896 22.336 10.016 20.512 10.464 18.208C10.528 18.016 10.784 17.92 11.232 17.92C11.68 17.92 11.904 18.016 11.904 18.208V51.328C11.904 53.952 12.544 55.872 13.824 57.088C15.168 58.304 16.992 58.912 19.296 58.912C20.896 58.912 22.336 58.624 23.616 58.048C24.96 57.472 26.048 56.864 26.88 56.224C27.136 56.032 27.36 56.096 27.552 56.416C27.808 56.672 27.808 56.896 27.552 57.088C25.184 59.072 23.008 60.512 21.024 61.408C19.04 62.304 16.96 62.752 14.784 62.752ZM24.672 29.248C22.112 28.672 19.648 28.288 17.28 28.096C14.912 27.904 12.416 27.808 9.792 27.808V25.6C12.352 25.6 14.816 25.504 17.184 25.312C19.616 25.12 22.208 24.896 24.96 24.64C25.152 24.64 25.312 24.864 25.44 25.312C25.568 25.76 25.632 26.272 25.632 26.848C25.632 27.36 25.536 27.904 25.344 28.48C25.152 29.056 24.928 29.312 24.672 29.248Z" fill="#4a6552"/>
</svg>
